# xmcd
#
# Track frame offsets: 
#        150
#        11020
#        21980
#        32846
#        36004
#        45244
#        60318
#        71264
#        80942
#        90220
#        101696
#        106808
#        116459
#        128022
#        139585
#        150549
#        161593
#        172578
#        175621
#        184941
#        200067
#        211288
#        221332
#        230819
#        242465
#        247626
#        257489
#        269181
#        280967
#        292067
#        303497
#        315018
#        318173
#        327611
#        344242
#
# Disc length: 4739 seconds
#
# Revision: 0
# Processed by: cddbd v1.5.2PL0 Copyright (c) Steve Scherf et al.
# Submitted via: ExactAudioCopy v0.95b3
#
DISCID=e4128123
DTITLE=The Monkees - The Monkees Complete 06 of 28 
DYEAR=1900
DGENRE=
TTITLE0=Monkees \\ You Told Me
TTITLE1=Monkees \\ I'll Spend My Life With You
TTITLE2=Monkees \\ Forget That Girl
TTITLE3=Monkees \\ Band Six
TTITLE4=Monkees \\ You Just May Be The One
TTITLE5=Monkees \\ Shades Of Gray
TTITLE6=Monkees \\ I Can't Get Her Off My Mind
TTITLE7=Monkees \\ For Pete's Sake
TTITLE8=Monkees \\ Mr. Webster
TTITLE9=Monkees \\ Sunny Girlfriend
TTITLE10=Monkees \\ Zilch
TTITLE11=Monkees \\ No Time
TTITLE12=Monkees \\ Early Morning Blues and Greens
TTITLE13=Monkees \\ Randy Scouse Git
TTITLE14=Monkees \\ You Told Me (mono)
TTITLE15=Monkees \\ I'll Spend My Life With You (m
TTITLE16=Monkees \\ Forget That Girl (mono)
TTITLE17=Monkees \\ Band Six (mono)
TTITLE18=Monkees \\ You Just May Be The One (mono)
TTITLE19=Monkees \\ Shades Of Gray (mono)
TTITLE20=Monkees \\ I Can't Get Her Off My Mind (m
TTITLE21=Monkees \\ For Pete's Sake (mono)
TTITLE22=Monkees \\ Mr. Webster (mono)
TTITLE23=Monkees \\ Sunny Girlfriend (mono)
TTITLE24=Monkees \\ Zilch (mono)
TTITLE25=Monkees \\ No Time (mono)
TTITLE26=Monkees \\ Early Morning Blues and Greens (
TTITLE27=Monkees \\ Randy Scouse Git (mono)
TTITLE28=Monkees \\ You Told Me (4.1 composite)
TTITLE29=Monkees \\ I'll Spend My Life With You (4
TTITLE30=Monkees \\ Forget That Girl (4.1composite
TTITLE31=Monkees \\ Band Six (4.1 composite)
TTITLE32=Monkees \\ You Just May Be The One (4.1 c
TTITLE33=Monkees \\ Shades Of Gray (4.1 composite)
TTITLE34=Monkees \\ I Can't Get Her Off My Mind (4
EXTD=
EXTT0=
EXTT1=
EXTT2=
EXTT3=
EXTT4=
EXTT5=
EXTT6=
EXTT7=
EXTT8=
EXTT9=
EXTT10=
EXTT11=
EXTT12=
EXTT13=
EXTT14=
EXTT15=
EXTT16=
EXTT17=
EXTT18=
EXTT19=
EXTT20=
EXTT21=
EXTT22=
EXTT23=
EXTT24=
EXTT25=
EXTT26=
EXTT27=
EXTT28=
EXTT29=
EXTT30=
EXTT31=
EXTT32=
EXTT33=
EXTT34=
PLAYORDER=
